<svg width="347" height="261" viewBox="0 0 347 261" fill="none" xmlns="http://www.w3.org/2000/svg">
<path d="M18.477 260.034C18.477 260.034 -14.1614 225.501 8.75512 138.412C31.67 51.3259 70.5574 -6.85617 129.582 0.65039C188.606 8.15862 184.999 76.9149 253.186 100.5C321.373 124.086 376.011 162.812 329.53 260.034H18.477Z" fill="#F0F0F0"/>
<path d="M170.46 101.458L151.117 108.509C150.781 108.628 150.411 108.46 150.292 108.125L140.865 82.2612C140.746 81.9258 140.914 81.5554 141.25 81.4366L153.164 77.0969L164.15 82.2682L170.845 100.64C170.963 100.969 170.796 101.339 170.46 101.458Z" fill="#21D4B4" fill-opacity="0.705882"/>
<path opacity="0.5" d="M170.46 101.458L151.117 108.509C150.781 108.628 150.411 108.46 150.292 108.125L140.865 82.2612C140.746 81.9258 140.914 81.5554 141.25 81.4366L153.164 77.0969L164.15 82.2682L170.845 100.64C170.963 100.969 170.796 101.339 170.46 101.458Z" fill="white"/>
<path opacity="0.1" d="M164.122 82.1987L156.092 85.1198L153.164 77.0903L164.122 82.1987Z" fill="black"/>
<path d="M161.453 84.5403L147.146 89.7542L150.45 98.8219L164.757 93.6081L161.453 84.5403Z" fill="#21D4B4" fill-opacity="0.705882"/>
<path opacity="0.7" d="M161.453 84.5403L147.146 89.7542L150.45 98.8219L164.757 93.6081L161.453 84.5403Z" fill="white"/>
<path d="M153.318 94.2463L151.341 98.4952L157.567 96.224L153.318 94.2463Z" fill="#21D4B4" fill-opacity="0.705882"/>
<path opacity="0.2" d="M153.318 94.2463L151.341 98.4952L157.567 96.224L153.318 94.2463Z" fill="white"/>
<path d="M156.169 96.7338L164.744 93.61L164.443 92.7854L159.153 90.3186L156.169 96.7338Z" fill="#21D4B4" fill-opacity="0.705882"/>
<path opacity="0.4" d="M156.169 96.7338L164.744 93.61L164.443 92.7854L159.153 90.3186L156.169 96.7338Z" fill="white"/>
<path d="M155.569 90.3324C155.876 91.178 155.443 92.1074 154.597 92.4149C153.752 92.7224 152.822 92.2891 152.515 91.4435C152.207 90.598 152.641 89.6685 153.486 89.361C154.325 89.0536 155.261 89.4938 155.569 90.3324Z" fill="white"/>
<path d="M185.611 117.441C181.585 111.242 173.276 109.481 167.078 113.499L166.169 112.095C173.137 107.566 182.494 109.558 187.015 116.525L185.611 117.441Z" fill="#21D4B4" fill-opacity="0.705882"/>
<path d="M169.279 116.895L168.371 115.49C173.472 112.178 180.313 113.631 183.626 118.733L182.221 119.641C179.412 115.316 173.605 114.086 169.279 116.895Z" fill="#21D4B4" fill-opacity="0.705882"/>
<g opacity="0.6">
<path d="M185.611 117.441C181.585 111.242 173.276 109.481 167.078 113.499L166.169 112.095C173.137 107.566 182.494 109.558 187.015 116.525L185.611 117.441Z" fill="white"/>
</g>
<g opacity="0.6">
<path d="M169.279 116.895L168.371 115.49C173.472 112.178 180.313 113.631 183.626 118.733L182.221 119.641C179.412 115.316 173.605 114.086 169.279 116.895Z" fill="white"/>
</g>
<path d="M179.126 121.655C177.421 119.034 173.906 118.286 171.285 119.992L170.376 118.587C173.773 116.386 178.329 117.35 180.53 120.746L179.126 121.655Z" fill="#21D4B4" fill-opacity="0.705882"/>
<path d="M177.407 122.765C176.317 121.095 174.073 120.613 172.403 121.703L172.054 121.933L174.255 125.316L177.644 123.114L177.407 122.765Z" fill="#21D4B4" fill-opacity="0.705882"/>
<path d="M189.643 116.147C189.244 118.026 187.393 119.228 185.506 118.83C183.626 118.432 182.424 116.58 182.822 114.693C183.221 112.813 185.073 111.611 186.959 112.01C188.839 112.415 190.041 114.267 189.643 116.147Z" fill="#21D4B4" fill-opacity="0.705882"/>
<path opacity="0.8" d="M188.559 114.441L188.07 113.694L186.358 114.805L185.247 113.093L184.506 113.582L185.617 115.294L183.905 116.405L184.387 117.146L186.1 116.035L187.211 117.747L187.958 117.264L186.847 115.552L188.559 114.441Z" fill="white"/>
<path d="M174.311 154.652C173.891 154.652 173.549 154.31 173.549 153.89V147.335C173.549 146.916 173.891 146.574 174.311 146.574C174.73 146.574 175.072 146.916 175.072 147.335V153.89C175.072 154.31 174.73 154.652 174.311 154.652Z" fill="#21D4B4" fill-opacity="0.705882"/>
<path d="M174.311 168.636C173.891 168.636 173.549 168.294 173.549 167.875V161.32C173.549 160.901 173.891 160.558 174.311 160.558C174.73 160.558 175.072 160.901 175.072 161.32V167.875C175.072 168.294 174.73 168.636 174.311 168.636Z" fill="#21D4B4" fill-opacity="0.705882"/>
<path d="M184.576 158.364H178.021C177.602 158.364 177.26 158.021 177.26 157.602C177.26 157.183 177.602 156.84 178.021 156.84H184.576C184.996 156.84 185.338 157.183 185.338 157.602C185.345 158.021 185.003 158.364 184.576 158.364Z" fill="#21D4B4" fill-opacity="0.705882"/>
<path d="M170.593 158.364H164.038C163.618 158.364 163.276 158.021 163.276 157.602C163.276 157.183 163.618 156.84 164.038 156.84H170.593C171.012 156.84 171.354 157.183 171.354 157.602C171.354 158.021 171.012 158.364 170.593 158.364Z" fill="#21D4B4" fill-opacity="0.705882"/>
<path d="M176.393 155.512C176.092 155.211 176.092 154.729 176.393 154.428L181.026 149.795C181.327 149.495 181.809 149.495 182.109 149.795C182.41 150.096 182.41 150.578 182.109 150.878L177.476 155.512C177.176 155.812 176.693 155.812 176.393 155.512Z" fill="#21D4B4" fill-opacity="0.705882"/>
<g opacity="0.5">
<path d="M184.576 158.364H178.021C177.602 158.364 177.26 158.021 177.26 157.602C177.26 157.183 177.602 156.84 178.021 156.84H184.576C184.996 156.84 185.338 157.183 185.338 157.602C185.345 158.021 185.003 158.364 184.576 158.364Z" fill="white"/>
</g>
<g opacity="0.5">
<path d="M176.393 155.512C176.092 155.211 176.092 154.729 176.393 154.428L181.026 149.795C181.327 149.495 181.809 149.495 182.109 149.795C182.41 150.096 182.41 150.578 182.109 150.878L177.476 155.512C177.176 155.812 176.693 155.812 176.393 155.512Z" fill="white"/>
</g>
<path d="M166.505 165.4C166.204 165.1 166.204 164.618 166.505 164.317L171.138 159.684C171.438 159.383 171.921 159.383 172.221 159.684C172.522 159.984 172.522 160.467 172.221 160.767L167.588 165.4C167.287 165.701 166.805 165.701 166.505 165.4Z" fill="#21D4B4" fill-opacity="0.705882"/>
<path d="M181.026 165.4L176.393 160.767C176.092 160.467 176.092 159.984 176.393 159.684C176.693 159.383 177.176 159.383 177.476 159.684L182.109 164.317C182.41 164.618 182.41 165.1 182.109 165.4C181.809 165.701 181.327 165.701 181.026 165.4Z" fill="#21D4B4" fill-opacity="0.705882"/>
<g opacity="0.3">
<path d="M174.311 168.636C173.891 168.636 173.549 168.294 173.549 167.875V161.32C173.549 160.901 173.891 160.558 174.311 160.558C174.73 160.558 175.072 160.901 175.072 161.32V167.875C175.072 168.294 174.73 168.636 174.311 168.636Z" fill="white"/>
</g>
<g opacity="0.3">
<path d="M181.026 165.4L176.393 160.767C176.092 160.467 176.092 159.984 176.393 159.684C176.693 159.383 177.176 159.383 177.476 159.684L182.109 164.317C182.41 164.618 182.41 165.1 182.109 165.4C181.809 165.701 181.327 165.701 181.026 165.4Z" fill="white"/>
</g>
<path d="M171.138 155.512L166.505 150.878C166.204 150.578 166.204 150.096 166.505 149.795C166.805 149.495 167.287 149.495 167.588 149.795L172.221 154.428C172.522 154.729 172.522 155.211 172.221 155.512C171.921 155.812 171.438 155.812 171.138 155.512Z" fill="#21D4B4" fill-opacity="0.705882"/>
<g opacity="0.7">
<path d="M174.311 154.652C173.891 154.652 173.549 154.31 173.549 153.89V147.335C173.549 146.916 173.891 146.574 174.311 146.574C174.73 146.574 175.072 146.916 175.072 147.335V153.89C175.072 154.31 174.73 154.652 174.311 154.652Z" fill="white"/>
</g>
<g opacity="0.7">
<path d="M171.138 155.512L166.505 150.878C166.204 150.578 166.204 150.096 166.505 149.795C166.805 149.495 167.287 149.495 167.588 149.795L172.221 154.428C172.522 154.729 172.522 155.211 172.221 155.512C171.921 155.812 171.438 155.812 171.138 155.512Z" fill="white"/>
</g>
<path d="M140.104 109.348C139.195 113.61 135.009 116.329 130.746 115.427C126.484 114.519 123.765 110.333 124.667 106.07C125.575 101.807 129.761 99.089 134.024 99.9905C138.294 100.899 141.012 105.085 140.104 109.348Z" fill="#21D4B4" fill-opacity="0.705882"/>
<path opacity="0.6" d="M140.104 109.348C139.195 113.61 135.009 116.329 130.746 115.427C126.484 114.519 123.765 110.333 124.667 106.07C125.575 101.807 129.761 99.089 134.024 99.9905C138.294 100.899 141.012 105.085 140.104 109.348Z" fill="white"/>
<path opacity="0.8" d="M137.658 105.482L136.561 103.798L132.683 106.314L130.167 102.443L128.483 103.54L130.998 107.411L127.127 109.927L128.217 111.611L132.096 109.095L134.611 112.974L136.295 111.877L133.78 108.005L137.658 105.482Z" fill="white"/>
<path d="M155.436 170.573C151.697 171.369 149.314 175.038 150.111 178.777C150.907 182.515 159.859 191.369 159.859 191.369C159.859 191.369 164.436 179.643 163.64 175.904C162.843 172.166 159.174 169.783 155.436 170.573ZM157.385 179.727C156.064 180.007 154.772 179.168 154.492 177.847C154.213 176.526 155.051 175.234 156.372 174.954C157.693 174.675 158.986 175.513 159.265 176.834C159.545 178.148 158.699 179.448 157.385 179.727Z" fill="#21D4B4" fill-opacity="0.705882"/>
<path opacity="0.5" d="M155.436 170.573C151.697 171.369 149.314 175.038 150.111 178.777C150.907 182.515 159.859 191.369 159.859 191.369C159.859 191.369 164.436 179.643 163.64 175.904C162.843 172.166 159.174 169.783 155.436 170.573ZM157.385 179.727C156.064 180.007 154.772 179.168 154.492 177.847C154.213 176.526 155.051 175.234 156.372 174.954C157.693 174.675 158.986 175.513 159.265 176.834C159.545 178.148 158.699 179.448 157.385 179.727Z" fill="white"/>
<path d="M213.528 111.639C209.419 113.953 198.064 112.031 194.94 108.495C193.207 106.538 194.548 99.6967 196.687 98.1802C200.53 95.4478 212.543 97.4814 215.275 101.325C216.785 103.456 215.807 110.361 213.528 111.639Z" fill="#21D4B4" fill-opacity="0.705882"/>
<path opacity="0.4" d="M213.528 111.639C209.419 113.953 198.064 112.031 194.94 108.495C193.207 106.538 194.548 99.6967 196.687 98.1802C200.53 95.4478 212.543 97.4814 215.275 101.325C216.785 103.456 215.807 110.361 213.528 111.639Z" fill="white"/>
<path d="M209.664 105.539L201.509 108.425L202.913 100.137L209.664 105.539Z" fill="white"/>
<path d="M219.825 235.757L212.599 245.806L207.889 243.081L212.928 231.83L219.825 235.757Z" fill="#FFB9B2"/>
<path d="M209.81 239.105L214.506 243.389C214.674 243.542 214.716 243.801 214.604 243.997L212.04 248.462C211.774 248.923 211.138 249.014 210.747 248.644C209.132 247.12 208.427 246.296 206.358 244.409C205.086 243.249 200.509 239.307 198.755 237.707C197.043 236.142 198.357 234.164 199.216 234.66C203.081 236.897 207.022 238.72 208.895 238.734C209.237 238.748 209.559 238.874 209.81 239.105Z" fill="#263238"/>
<path d="M207.127 237.63C207.224 238.378 208.329 239.084 208.978 239.447C209.034 239.475 209.104 239.475 209.153 239.433C209.202 239.391 209.223 239.328 209.209 239.266C209.104 238.881 208.531 236.952 207.853 236.771C207.741 236.743 207.574 236.736 207.406 236.904C207.371 236.938 207.343 236.966 207.315 237.001C207.154 237.183 207.092 237.4 207.127 237.63ZM207.441 237.588C207.42 237.421 207.483 237.267 207.63 237.127C207.693 237.064 207.742 237.064 207.776 237.071C208.098 237.155 208.524 238.126 208.79 238.965C207.986 238.476 207.49 237.973 207.441 237.588Z" fill="#21D4B4" fill-opacity="0.705882"/>
<path d="M208.902 239.356C208.923 239.412 208.972 239.454 209.028 239.461C209.084 239.468 209.14 239.454 209.182 239.405C209.224 239.349 210.23 238.042 210.111 237.197C210.076 236.973 209.972 236.791 209.797 236.666C209.517 236.47 209.315 236.561 209.217 236.638C209.182 236.666 209.154 236.694 209.119 236.728C208.686 237.246 208.7 238.762 208.902 239.356ZM209.399 236.889C209.427 236.868 209.476 236.833 209.608 236.924C209.713 237.001 209.776 237.099 209.79 237.239C209.86 237.714 209.441 238.469 209.126 238.93C209.021 238.217 209.119 237.099 209.399 236.889Z" fill="#21D4B4" fill-opacity="0.705882"/>
<path d="M211.963 233.822C217.637 220.642 223.032 204.185 227.833 192.34C234.318 176.337 257.163 146.155 257.163 146.155L258.819 144.149L278.47 143.052V150.292C278.47 150.292 243.689 190.803 239.783 201.655C235.513 213.521 226.428 227.148 218.21 238.336L211.963 233.822Z" fill="#21D4B4" fill-opacity="0.705882"/>
<path d="M218.658 238.064L217.477 239.28C217.477 239.28 211.068 234.8 211.124 234.723C211.173 234.646 211.956 233.151 211.956 233.151L218.658 238.064Z" fill="#21D4B4" fill-opacity="0.705882"/>
<path opacity="0.4" d="M218.658 238.064L217.477 239.28C217.477 239.28 211.068 234.8 211.124 234.723C211.173 234.646 211.956 233.151 211.956 233.151L218.658 238.064Z" fill="white"/>
<path opacity="0.2" d="M256.422 177.183C260.119 159.803 266.785 150.173 266.785 150.173L270.314 152.731L271.44 158.643C267.24 163.682 261.705 170.425 256.422 177.183Z" fill="black"/>
<path d="M276.89 242.801L275.674 255.128H270.23L268.952 242.864L276.89 242.801Z" fill="#FFB9B2"/>
<path d="M269.657 253.599L276.01 253.473C276.24 253.466 276.443 253.627 276.499 253.851L277.715 258.854C277.841 259.371 277.442 259.875 276.904 259.875C274.682 259.882 273.606 259.77 270.81 259.826C269.091 259.861 263.054 260.161 260.678 260.203C258.357 260.252 257.945 257.911 258.917 257.673C263.256 256.632 267.372 255.234 268.742 253.956C268.994 253.732 269.322 253.606 269.657 253.599Z" fill="#263238"/>
<path d="M266.695 254.374C267.282 254.849 268.567 254.598 269.287 254.416C269.35 254.402 269.392 254.346 269.406 254.283C269.413 254.22 269.385 254.157 269.329 254.123C268.987 253.92 267.247 252.914 266.632 253.249C266.527 253.305 266.408 253.417 266.394 253.654C266.394 253.703 266.394 253.745 266.394 253.787C266.415 254.032 266.513 254.227 266.695 254.374ZM266.897 254.13C266.764 254.025 266.709 253.871 266.715 253.668C266.722 253.577 266.75 253.55 266.785 253.529C267.079 253.375 268.057 253.78 268.826 254.199C267.903 254.395 267.198 254.367 266.897 254.13Z" fill="#21D4B4" fill-opacity="0.705882"/>
<path d="M269.175 254.402C269.224 254.43 269.287 254.423 269.336 254.395C269.385 254.36 269.413 254.311 269.406 254.248C269.399 254.179 269.231 252.536 268.553 252.005C268.372 251.866 268.176 251.81 267.959 251.838C267.624 251.886 267.54 252.096 267.519 252.215C267.512 252.257 267.512 252.299 267.512 252.348C267.561 253.019 268.616 254.116 269.175 254.402ZM267.834 252.271C267.841 252.243 267.848 252.173 268.008 252.152C268.134 252.138 268.253 252.166 268.358 252.257C268.735 252.557 268.952 253.389 269.043 253.941C268.477 253.501 267.778 252.613 267.834 252.271Z" fill="#21D4B4" fill-opacity="0.705882"/>
<path d="M278.435 203.137C280.035 213.249 278.428 233.305 276.792 247.771L269.315 247.589C267.519 232.565 264.717 211.3 263.473 200.726C261.446 183.577 265.968 143.766 265.968 143.766L286.394 143.339C286.394 143.339 286.415 146.722 285.388 151.949C282.369 167.267 277.093 194.64 278.435 203.137Z" fill="#21D4B4" fill-opacity="0.705882"/>
<path d="M277.198 247.47L276.925 249.14C276.925 249.14 269.106 249.112 269.106 249.021C269.106 248.93 268.896 247.26 268.896 247.26L277.198 247.47Z" fill="#21D4B4" fill-opacity="0.705882"/>
<path opacity="0.4" d="M277.198 247.47L276.925 249.14C276.925 249.14 269.106 249.112 269.106 249.021C269.106 248.93 268.896 247.26 268.896 247.26L277.198 247.47Z" fill="white"/>
<path d="M259.231 104.833L254.64 114.477C253.857 116.071 253.089 117.671 252.285 119.208C251.88 119.977 251.474 120.746 251.062 121.479C250.859 121.857 250.65 122.213 250.44 122.563L250.14 123.066C250.077 123.136 250.07 123.198 249.986 123.289C249.706 123.646 249.175 124.107 248.588 124.54C247.994 124.98 247.295 125.393 246.583 125.798C245.15 126.609 243.585 127.342 241.991 128.041C238.798 129.418 235.436 130.704 232.103 131.892L232.893 135.372C236.596 134.883 240.195 134.156 243.815 133.094C245.618 132.556 247.421 131.955 249.231 131.158C250.133 130.753 251.041 130.319 251.963 129.774C252.886 129.222 253.822 128.593 254.766 127.615C254.996 127.391 255.241 127.07 255.465 126.79L255.912 126.168C256.205 125.763 256.485 125.358 256.743 124.96C257.289 124.156 257.771 123.352 258.26 122.549C259.224 120.941 260.126 119.327 260.992 117.699C262.732 114.442 264.312 111.172 265.8 107.79L259.231 104.833Z" fill="#FFB9B2"/>
<path d="M269.909 104.331C270.859 109.104 259.161 123.108 259.161 123.108L250.845 118.405C250.845 118.405 253.305 111.368 257.393 105.498C261.698 99.3201 268.854 99.0196 269.909 104.331Z" fill="#2A1D19"/>
<path opacity="0.2" d="M269.972 104.931C267.966 103.96 264.004 104.798 260.894 108.733C257.826 112.632 256.107 119.236 255.618 121.109L259.161 123.107C259.161 123.114 270.063 110.144 269.972 104.931Z" fill="black"/>
<path d="M232.536 131.801L229.217 131.501C227.477 131.347 225.967 132.696 225.932 134.45C225.89 136.777 228.385 138.272 230.419 137.14C231.439 136.574 232.452 135.903 233.27 135.149L232.536 131.801Z" fill="#FFB9B2"/>
<path d="M263.955 100.739C263.955 100.739 257.33 115.358 258.483 145.177C267.393 145.128 281.81 143.688 286.143 143.667C287.037 139.53 287.051 122.989 293.83 103.457C294.41 101.78 293.334 99.984 291.573 99.7394C289.798 99.4948 287.526 99.2362 285.283 99.1454C281.53 98.9916 276.08 98.9078 272.711 99.2153C268.267 99.6206 263.955 100.739 263.955 100.739Z" fill="#353640"/>
<path d="M288.714 85.8257C286.562 89.6343 283.284 96.6085 285.276 99.1382C280.769 100.704 279.42 104.561 274.179 103.834C271.838 103.513 271.474 101.256 272.383 99.3129C277.344 98.2856 278.4 95.0012 278.644 92.0452L288.714 85.8257Z" fill="#FFB9B2"/>
<path opacity="0.2" d="M277.457 96.126C278.232 94.8681 278.526 93.4286 278.638 92.0589L283.774 88.8862L285.696 92.1288C285.703 92.1218 282.844 96.7689 277.457 96.126Z" fill="black"/>
<path d="M278.211 72.4569C273.9 73.4143 273.844 82.8135 275.472 84.0434C278.512 86.3495 283.557 71.2689 278.211 72.4569Z" fill="#263238"/>
<path d="M289.749 82.4991C288.456 87.7193 287.967 90.836 284.801 93.0583C280.042 96.3986 273.976 92.7857 273.683 87.286C273.417 82.3384 275.577 74.6374 281.125 73.4843C286.597 72.3522 291.041 77.2859 289.749 82.4991Z" fill="#FFB9B2"/>
<path d="M294.78 79.1379C294.347 82.2617 289.322 89.8858 287.142 89.2848C284.961 88.6838 285.891 81.6537 287.806 77.5027C285.863 76.5174 269.958 75.6089 275.388 71.4998C275.388 71.4998 271.914 65.3013 278.295 68.3621C278.295 68.3621 280.307 60.4096 283.515 67.5725C283.515 67.5725 287.708 61.9819 289.105 69.2357C289.105 69.2357 293.263 67.0903 293.04 72.3873C293.04 72.3873 298.162 72.4642 294.612 75.9583C294.619 75.9653 299.161 78.0688 294.78 79.1379Z" fill="#263238"/>
<path d="M291.063 88.7533C290.091 89.8295 288.714 90.3536 287.527 90.3955C285.738 90.4584 285.262 88.7533 286.108 87.2858C286.87 85.965 288.721 84.3367 290.35 84.9727C291.957 85.6016 292.174 87.5234 291.063 88.7533Z" fill="#FFB9B2"/>
<path d="M280.643 82.925C280.566 83.3513 280.273 83.6588 279.993 83.6099C279.714 83.5609 279.546 83.1696 279.63 82.7363C279.707 82.3101 280 82.0026 280.28 82.0515C280.559 82.1074 280.72 82.4918 280.643 82.925Z" fill="#263238"/>
<path d="M275.786 82.0315C275.71 82.4578 275.416 82.7652 275.137 82.7163C274.857 82.6674 274.689 82.2761 274.773 81.8428C274.85 81.4165 275.143 81.109 275.423 81.1579C275.703 81.2139 275.863 81.6052 275.786 82.0315Z" fill="#263238"/>
<path d="M278.036 82.6948C278.036 82.6948 276.604 84.9939 275.311 85.9933C275.94 86.8388 277.296 86.755 277.296 86.755L278.036 82.6948Z" fill="#A02724"/>
<path d="M278.064 88.7469C278.001 88.726 277.967 88.6631 277.974 88.6002C277.988 88.5303 278.05 88.4814 278.12 88.4953C280.007 88.8378 281.125 87.6847 281.139 87.6707C281.188 87.6218 281.272 87.6148 281.321 87.6638C281.37 87.7127 281.377 87.7965 281.328 87.8454C281.279 87.8944 280.098 89.1103 278.078 88.7399C278.071 88.7539 278.064 88.7539 278.064 88.7469Z" fill="#263238"/>
<path d="M282.942 81.3668C282.879 81.3459 282.823 81.3039 282.789 81.234C282.278 80.2208 281.363 80.102 281.328 80.095C281.188 80.081 281.09 79.9482 281.104 79.8085C281.118 79.6687 281.244 79.5708 281.384 79.5848C281.433 79.5918 282.607 79.7386 283.25 81.0034C283.313 81.1292 283.264 81.283 283.138 81.3459C283.075 81.3878 283.005 81.3878 282.942 81.3668Z" fill="#263238"/>
<path d="M274.849 79.9697C274.822 79.9627 274.801 79.9488 274.773 79.9348C274.661 79.8509 274.633 79.6902 274.717 79.5784C275.555 78.4323 276.743 78.4882 276.792 78.4882C276.932 78.4952 277.044 78.621 277.037 78.7608C277.03 78.9005 276.911 79.0124 276.764 79.0054C276.722 79.0054 275.8 78.9774 275.129 79.8859C275.066 79.9627 274.947 79.9977 274.849 79.9697Z" fill="#263238"/>
<path d="M280.112 74.3862C280.112 74.3862 276.317 74.7915 276.925 76.3359C277.533 77.8803 283.774 75.693 283.774 75.693L280.112 74.3862Z" fill="#263238"/>
<path d="M284.214 75.1753C284.214 75.1753 280.419 75.5806 281.027 77.125C281.635 78.6694 287.876 76.4821 287.876 76.4821L284.214 75.1753Z" fill="#263238"/>
<path d="M313.424 253.235C313.368 253.221 310.915 252.39 284.179 252.39C280.356 252.39 277.12 250.908 274.549 247.98C262.431 234.186 272.725 190.824 276.093 164.919C276.981 158.112 277.679 152.738 277.679 150.404C277.679 148.587 277.058 147.21 275.779 146.183C271.236 142.535 259.79 144.052 255.764 144.946L255.01 141.536C255.667 141.389 271.201 138.028 277.966 143.465C280.097 145.17 281.174 147.511 281.174 150.411C281.174 152.969 280.496 158.168 279.559 165.373C276.485 189.035 266.107 233.074 277.176 245.681C279.077 247.847 281.369 248.903 284.179 248.903C311.558 248.903 313.927 249.776 314.2 249.839L313.424 253.235Z" fill="#21D4B4" fill-opacity="0.705882"/>
<g opacity="0.7">
<path d="M313.424 253.235C313.368 253.221 310.915 252.39 284.179 252.39C280.356 252.39 277.12 250.908 274.549 247.98C262.431 234.186 272.725 190.824 276.093 164.919C276.981 158.112 277.679 152.738 277.679 150.404C277.679 148.587 277.058 147.21 275.779 146.183C271.236 142.535 259.79 144.052 255.764 144.946L255.01 141.536C255.667 141.389 271.201 138.028 277.966 143.465C280.097 145.17 281.174 147.511 281.174 150.411C281.174 152.969 280.496 158.168 279.559 165.373C276.485 189.035 266.107 233.074 277.176 245.681C279.077 247.847 281.369 248.903 284.179 248.903C311.558 248.903 313.927 249.776 314.2 249.839L313.424 253.235Z" fill="white"/>
</g>
<path d="M213.27 127.118V139.858V146.315V159.054L261.292 151.528C263.592 151.165 265.283 149.187 265.283 146.86V146.315V139.858V139.313C265.283 136.986 263.592 135.008 261.292 134.645L213.27 127.118Z" fill="#21D4B4" fill-opacity="0.705882"/>
<path opacity="0.4" d="M213.27 127.118V139.858V146.315V159.054L261.292 151.528C263.592 151.165 265.283 149.187 265.283 146.86V146.315V139.858V139.313C265.283 136.986 263.592 135.008 261.292 134.645L213.27 127.118Z" fill="white"/>
<path opacity="0.2" d="M261.286 147.406L213.263 154.932V159.055L261.286 151.529C263.585 151.165 265.276 149.188 265.276 146.861V146.316V142.738C265.276 145.065 263.585 147.042 261.286 147.406Z" fill="#263238"/>
<path d="M211.767 122.374H193.423V141.85H237.994V131.87L211.767 122.374Z" fill="#21D4B4" fill-opacity="0.705882"/>
<path opacity="0.6" d="M211.767 122.374H193.423V141.85H237.994V131.87L211.767 122.374Z" fill="white"/>
<path d="M219.643 162.695L193.423 153.198V122.374L219.643 131.87V162.695Z" fill="#21D4B4" fill-opacity="0.705882"/>
<path opacity="0.4" d="M219.643 162.695L193.423 153.198V122.374L219.643 131.87V162.695Z" fill="white"/>
<path d="M237.994 131.871H219.643V162.696H237.994V131.871Z" fill="#21D4B4" fill-opacity="0.705882"/>
<path opacity="0.2" d="M237.994 131.871H219.643V162.696H237.994V131.871Z" fill="white"/>
<path d="M211.236 139.263V132.66L201.83 129.249V135.86L197.965 134.462V151.004L215.1 157.209V140.661L211.236 139.263Z" fill="#263238"/>
<path opacity="0.1" d="M211.236 139.263V132.66L201.83 129.249V135.86L197.965 134.462V151.004L215.1 157.209V140.661L211.236 139.263Z" fill="white"/>
<path d="M215.101 154.932V146.05H201.026V152.116L208.804 154.932H215.101Z" fill="#21D4B4" fill-opacity="0.705882"/>
<path opacity="0.2" d="M215.101 154.932V146.05H201.026V152.116L208.804 154.932H215.101Z" fill="white"/>
<path d="M200.236 131.744L197.965 130.927V127.852L200.236 128.676V131.744Z" fill="white"/>
<path d="M215.1 137.125L212.829 136.307V133.233L215.1 134.057V137.125Z" fill="#21D4B4" fill-opacity="0.705882"/>
<path d="M215.1 156.106V150.04H212.04V156.106H215.1Z" fill="#21D4B4" fill-opacity="0.705882"/>
<path opacity="0.2" d="M215.1 156.106V150.04H212.04V156.106H215.1Z" fill="black"/>
<path d="M201.026 152.116L212.04 156.106V150.04L201.026 146.05V152.116Z" fill="#21D4B4" fill-opacity="0.705882"/>
<path d="M290.043 106.195C289.414 107.684 288.729 109.319 288.009 110.842C287.289 112.387 281.88 125.133 281.426 125.636C280.979 126.132 263.781 133.512 259.721 135.329L260.063 137.46C260.203 138.327 260.266 138.599 261.139 138.543C264.242 138.348 280.504 133.819 281.447 133.582C281.922 133.463 283.907 132.841 284.571 132.52C288.442 131.15 292.656 119.354 293.46 117.663C293.858 116.817 295.605 112.359 295.975 111.499C296.353 110.633 296.688 109.801 297.031 108.858L290.043 106.195Z" fill="#FFB9B2"/>
<path d="M260.042 135.378L255.045 136.691C253.403 137.013 252.522 138.886 253.13 140.773C253.934 143.281 256.75 144.19 258.19 142.408C258.798 141.653 260.503 139.599 260.95 138.732C261.104 138.439 261.083 138.089 260.922 137.796L260.042 135.378Z" fill="#FFB9B2"/>
<path d="M295.158 100.961C302.733 103.728 293.376 123.568 293.376 123.568L282.635 119.62C282.635 119.62 284.969 115.07 287.023 108.9C288.98 103.009 290.343 99.2071 295.158 100.961Z" fill="#2A1D19"/>
<path d="M98.9427 141.347C98.9427 141.347 96.371 179.482 95.0363 197.197C93.6386 215.8 94.8686 241.628 96.5108 253.592C95.5255 254.27 92.4646 254.144 90.3821 253.669C90.3821 253.669 78.2856 221.034 81.9614 199.985C79.0613 186.568 80.0885 176.226 78.9564 168.545C76.6084 152.675 81.8426 145.436 81.8426 145.436L98.9427 141.347Z" fill="#FFB9B2"/>
<path d="M102.388 140.984C102.388 140.984 115.743 175.527 121.445 192.347C127.434 210.014 137.448 231.775 143.64 242.145C142.997 243.152 140.188 244.514 138.084 244.885C138.084 244.885 115.219 219.629 111.152 199.755C86.3016 164.59 87.5525 144.45 87.5525 144.45L102.388 140.984Z" fill="#FFB9B2"/>
<path opacity="0.2" d="M116.637 178.784C113.457 179.748 107.217 181.502 100.368 182.69C96.476 175.695 93.7576 169.573 91.8638 164.409L109.565 159.79C111.836 165.807 114.352 172.529 116.637 178.784Z" fill="black"/>
<path opacity="0.2" d="M97.4685 162.948C97.0142 169.503 96.5111 176.722 96.0429 183.347C90.2357 184.08 84.3656 184.227 79.8442 182.997C79.5577 177.407 79.5577 172.606 78.9567 168.56C78.9218 168.308 78.8868 168.063 78.8589 167.812L97.4685 162.948Z" fill="black"/>
<path d="M90.0195 113.338C91.487 116.399 93.0454 119.278 94.7854 122.172C96.5674 125.044 98.3703 127.846 100.914 130.627C101.578 131.319 102.277 132.018 103.276 132.738C103.528 132.919 103.786 133.094 104.101 133.262C104.415 133.443 104.66 133.541 104.939 133.674C105.463 133.891 105.96 134.065 106.435 134.198C108.329 134.729 110.034 134.967 111.746 135.135C115.163 135.456 118.461 135.442 121.83 135.177C122.899 135.093 123.696 134.156 123.612 133.087C123.542 132.221 122.913 131.529 122.109 131.347L122.053 131.333C118.944 130.627 115.778 129.935 112.801 129.146C111.326 128.74 109.845 128.314 108.657 127.79C108.363 127.657 108.112 127.531 107.895 127.413C107.818 127.357 107.693 127.294 107.665 127.252C107.623 127.217 107.553 127.161 107.483 127.091C107.182 126.833 106.742 126.35 106.33 125.84C105.484 124.792 104.632 123.541 103.835 122.248C103.031 120.956 102.228 119.621 101.473 118.251C99.9357 115.54 98.4263 112.696 97.0007 109.942L96.9727 109.886C95.9874 107.978 93.6393 107.231 91.7386 108.216C89.8727 109.173 89.118 111.452 90.0195 113.338Z" fill="#FFB9B2"/>
<path d="M90.1519 107.349C90.1519 107.349 97.4056 104.17 102.647 118.356C102.647 118.356 100.9 121.941 94.785 122.961C94.785 122.961 90.1449 114.386 90.1519 107.349Z" fill="#21D4B4" fill-opacity="0.705882"/>
<path opacity="0.2" d="M90.1519 107.349C90.1519 107.349 97.4056 104.17 102.647 118.356C102.647 118.356 100.9 121.941 94.785 122.961C94.785 122.961 90.1449 114.386 90.1519 107.349Z" fill="black"/>
<path d="M94.8967 124.073C94.8967 124.073 100.082 123.668 103.751 118.713L103.143 117.476L101.487 116.372C101.487 116.372 99.6137 119.726 93.0938 121.201L94.8967 124.073Z" fill="#21D4B4" fill-opacity="0.705882"/>
<path opacity="0.7" d="M94.8967 124.073C94.8967 124.073 100.082 123.668 103.751 118.713L103.143 117.476L101.487 116.372C101.487 116.372 99.6137 119.726 93.0938 121.201L94.8967 124.073Z" fill="white"/>
<path d="M102.444 259.175C98.0486 259.518 97.4616 259.497 94.9877 259.602C92.8633 259.693 92.3811 259.993 90.676 260.091C89.2504 260.168 89.2015 258.805 89.516 257.212C89.6767 256.408 89.8794 254.724 90.089 253.431L96.4902 252.46C97.5314 254.116 99.7677 256.429 102.269 256.569C104.659 256.702 104.198 259.036 102.444 259.175Z" fill="#263238"/>
<path d="M151.669 245.347C147.755 247.38 147.21 247.59 144.974 248.659C143.059 249.567 142.731 250.043 141.201 250.79C139.922 251.419 139.342 250.189 139.006 248.589C138.838 247.785 138.37 246.157 138.049 244.885L143.563 241.489C145.17 242.607 148.133 243.858 150.488 243.005C152.738 242.202 153.227 244.536 151.669 245.347Z" fill="#263238"/>
<path d="M103.052 140.67L116.56 175.437C116.56 175.437 97.797 183.005 78.3488 180.908C78.3488 180.908 79.2852 175.199 78.3488 170.657C77.4124 166.114 76.1685 156.212 80.8017 145.471L81.3537 144.507L102.025 139.79L103.052 140.67Z" fill="#21D4B4" fill-opacity="0.705882"/>
<g opacity="0.5">
<path d="M100.655 179.804L99.7959 161.46L103.234 179.294C102.396 179.469 101.543 179.644 100.655 179.804Z" fill="black"/>
<path d="M94.8969 174.152L95.1974 180.644C94.3798 180.749 93.5482 180.84 92.7026 180.916L94.8969 174.152Z" fill="black"/>
<path d="M108.244 178.092L104.68 161.46L110.739 177.394C109.977 177.617 109.139 177.855 108.244 178.092Z" fill="black"/>
<path d="M87.2518 169.498L87.4195 181.252C86.5111 181.28 85.5886 181.28 84.6592 181.273L87.2518 169.498Z" fill="black"/>
</g>
<path d="M128.727 131.215L127.182 130.334C126.602 130.006 125.897 129.978 125.289 130.257L122.458 131.571C121.326 132.095 120.523 133.137 120.292 134.366L120.152 135.128C122.612 136.756 126.477 136.708 126.477 136.708L127.581 136.812C128.559 136.91 129.398 136.253 129.503 135.303L129.74 133.123C129.824 132.368 129.419 131.606 128.727 131.215Z" fill="#FFB9B2"/>
<path d="M102.34 142.053L81.6127 146.19C80.7252 146.365 79.8726 145.75 79.7818 144.849C79.4603 141.634 77.6783 133.143 69.0898 113.5C69.0898 113.5 75.5679 107.14 88.9433 107.252C91.9692 107.28 94.7505 108.943 96.1761 111.613C98.4053 115.799 101.34 124.094 103.556 140.341C103.674 141.145 103.136 141.9 102.34 142.053Z" fill="#353640"/>
<path d="M86.113 107.329C86.8887 107.993 88.503 109.845 87.2521 113.094C87.2521 113.094 80.9348 110.04 76.3086 109.355C78.8733 108.391 82.1368 107.58 86.113 107.329Z" fill="#FFB9B2"/>
<path d="M68.9427 85.6376C68.9427 85.6376 69.1523 73.7297 66.0915 72.36C63.2333 71.0812 63.9321 75.7353 63.9321 75.7353C63.9321 75.7353 60.3332 68.8729 56.8251 69.6765C53.7993 70.3754 58.2228 74.9177 58.2228 74.9177C58.2228 74.9177 51.9334 72.1224 50.6546 74.1001C49.3757 76.0777 52.9816 78.4118 52.9816 78.4118C52.9816 78.4118 47.3911 78.6773 47.6217 81.0463C47.8523 83.4153 53.6805 83.5691 53.6805 83.5691C53.6805 83.5691 48.7538 84.5404 49.3687 87.3637C49.9488 90.0192 56.5875 88.7962 56.5875 88.7962C56.5875 88.7962 52.1361 89.8654 52.9747 92.2205C54.0229 95.1555 60.3123 92.479 60.3123 92.479C60.3123 92.479 57.0558 94.4357 58.2857 96.1129C60.4311 99.034 67.7407 90.2777 67.7407 90.2777L68.9427 85.6376Z" fill="#263238"/>
<path d="M71.7936 84.4707C71.7936 84.4707 67.7474 83.0731 66.3777 87.3708C64.8054 92.2905 70.1863 93.3527 70.1863 93.3527L71.7936 84.4707Z" fill="#21D4B4" fill-opacity="0.705882"/>
<path d="M74.3936 99.0408C76.0008 101.997 78.4327 107.524 76.8814 110.124C76.8814 110.124 79.7675 108.964 87.0492 111.368C88.2581 108.293 86.6928 107.776 86.6928 107.776C82.9122 107.79 82.1784 105.204 82.0247 102.647L74.3936 99.0408Z" fill="#FFB9B2"/>
<path opacity="0.2" d="M77.5031 100.515L82.0245 102.654C82.0594 103.262 82.1293 103.863 82.2691 104.436C80.8644 104.569 78.5514 103.555 77.9713 102.207C77.6778 101.536 77.4961 100.865 77.5031 100.515Z" fill="black"/>
<path d="M70.1798 93.3459C72.3532 98.2166 73.1708 100.313 76.6649 102.067C81.92 104.702 87.4686 101.319 86.7978 95.9804C86.1968 91.1795 82.7376 84.0236 77.0842 83.5973C71.5146 83.178 68.0065 88.4821 70.1798 93.3459Z" fill="#FFB9B2"/>
<path d="M78.1389 92.6122C78.3067 93.0314 78.6561 93.297 78.9286 93.2131C79.2011 93.1293 79.285 92.717 79.1243 92.3047C78.9566 91.8854 78.6071 91.6198 78.3346 91.7037C78.0621 91.7875 77.9782 92.1929 78.1389 92.6122Z" fill="#263238"/>
<path d="M83.3735 90.7664C83.5412 91.1857 83.8906 91.4513 84.1632 91.3674C84.4357 91.2836 84.5195 90.8713 84.3588 90.459C84.1911 90.0397 83.8417 89.7741 83.5692 89.858C83.2966 89.9418 83.2058 90.3472 83.3735 90.7664Z" fill="#263238"/>
<path d="M83.457 89.9144L84.3375 89.3064C84.3375 89.3134 84.1349 90.2568 83.457 89.9144Z" fill="#263238"/>
<path d="M81.626 92.0388C81.626 92.0388 83.0376 93.6112 84.1557 94.2261C83.8133 94.911 82.786 94.9739 82.786 94.9739L81.626 92.0388Z" fill="#A02724"/>
<path d="M82.4721 97.8672C82.7027 97.8393 82.9403 97.7834 83.1919 97.7065C83.2617 97.6855 83.2897 97.6157 83.2617 97.5458C83.2338 97.4759 83.1639 97.441 83.094 97.4619C81.2771 98.0419 79.9144 97.0357 79.9004 97.0287C79.8445 96.9867 79.7606 96.9937 79.7187 97.0496C79.6768 97.1055 79.6908 97.1824 79.7467 97.2313C79.8026 97.2593 80.8997 98.0769 82.4721 97.8672Z" fill="#263238"/>
<path d="M75.0856 90.2774C75.1555 90.2634 75.2114 90.2215 75.2464 90.1586C75.7775 89.1802 76.7349 89.1313 76.7418 89.1313C76.8816 89.1243 76.9864 89.0055 76.9725 88.8658C76.9585 88.726 76.8257 88.6142 76.6859 88.6212C76.637 88.6212 75.4351 88.6771 74.7782 89.9C74.7153 90.0188 74.7642 90.1795 74.897 90.2494C74.9529 90.2844 75.0228 90.2913 75.0856 90.2774Z" fill="#263238"/>
<path d="M83.2056 87.3637C83.2685 87.3568 83.3314 87.3288 83.3733 87.2799C83.4572 87.1751 83.4362 87.0073 83.3244 86.9165C82.1643 85.9871 81.0253 86.2945 80.9763 86.3085C80.8436 86.3505 80.7667 86.4902 80.8156 86.623C80.8645 86.7558 81.0113 86.8396 81.151 86.7977C81.193 86.7837 82.0875 86.5601 83.0099 87.3008C83.0658 87.3498 83.1357 87.3707 83.2056 87.3637Z" fill="#263238"/>
<path d="M78.2227 91.7591L79.1032 91.1511C79.1032 91.1581 78.9005 92.1015 78.2227 91.7591Z" fill="#263238"/>
<path d="M73.0587 97.4962C73.0587 97.4962 75.8051 96.5458 71.7869 89.341C71.7869 89.341 75.0574 89.8441 73.9742 86.8042C73.9742 86.8042 77.7828 88.6561 76.9721 85.2808C76.9721 85.2808 79.8862 86.9091 79.8862 84.4073C79.8862 84.4073 82.4369 84.7008 82.2063 82.4855C81.9827 80.2703 69.8232 79.5715 68.3906 88.1949C68.3906 88.1949 65.19 92.9329 73.0587 97.4962Z" fill="#263238"/>
<path d="M70.0608 97.965C71.0042 98.7966 72.1922 99.1111 73.1496 99.0342C74.5961 98.9154 74.708 97.406 73.7995 96.232C72.9819 95.1698 71.2418 93.9538 70.0398 94.6596C68.8519 95.3445 68.9776 97.0147 70.0608 97.965Z" fill="#FFB9B2"/>
<path d="M84.8826 107.245C84.8826 107.245 87.8247 108.356 87.021 112.675C87.021 112.675 85.6583 110.103 75.8259 108.929L73.0586 110.809C73.0586 110.809 78.6492 114.471 82.7862 115.554C82.7862 115.554 82.2061 113.716 84.0371 112.081C84.0371 112.081 86.2942 112.717 87.4333 114.289C87.4333 114.289 88.3138 113.234 88.1391 110.529C88.1391 110.529 89.8862 110.795 90.585 113.415C90.585 113.415 91.6542 111.661 88.9358 107.252L84.8826 107.245Z" fill="#21D4B4" fill-opacity="0.705882"/>
<path opacity="0.7" d="M84.8826 107.245C84.8826 107.245 87.8247 108.356 87.021 112.675C87.021 112.675 85.6583 110.103 75.8259 108.929L73.0586 110.809C73.0586 110.809 78.6492 114.471 82.7862 115.554C82.7862 115.554 82.2061 113.716 84.0371 112.081C84.0371 112.081 86.2942 112.717 87.4333 114.289C87.4333 114.289 88.3138 113.234 88.1391 110.529C88.1391 110.529 89.8862 110.795 90.585 113.415C90.585 113.415 91.6542 111.661 88.9358 107.252L84.8826 107.245Z" fill="white"/>
<path d="M33.3517 252.831C33.4076 252.817 40.1442 251.42 66.8811 251.42C70.7036 251.42 82.2901 249.938 84.8547 247.01C96.9723 233.216 91.3328 189.854 87.9645 163.949C87.077 157.142 86.3782 151.768 86.3782 149.434C86.3782 147.617 87.0001 146.24 88.2789 145.213C92.8213 141.565 104.268 143.082 108.293 143.976L109.048 140.566C108.391 140.419 92.8562 137.058 86.0916 142.495C83.9602 144.2 82.8841 146.541 82.8841 149.441C82.8841 151.999 83.5619 157.198 84.4983 164.403C87.5731 188.065 93.3035 232.104 82.2342 244.711C80.3334 246.878 69.6973 247.933 66.8811 247.933C39.5013 247.933 32.8486 249.372 32.583 249.428L33.3517 252.831Z" fill="#21D4B4" fill-opacity="0.705882"/>
<g opacity="0.7">
<path d="M33.3517 252.831C33.4076 252.817 40.1442 251.42 66.8811 251.42C70.7036 251.42 82.2901 249.938 84.8547 247.01C96.9723 233.216 91.3328 189.854 87.9645 163.949C87.077 157.142 86.3782 151.768 86.3782 149.434C86.3782 147.617 87.0001 146.24 88.2789 145.213C92.8213 141.565 104.268 143.082 108.293 143.976L109.048 140.566C108.391 140.419 92.8562 137.058 86.0916 142.495C83.9602 144.2 82.8841 146.541 82.8841 149.441C82.8841 151.999 83.5619 157.198 84.4983 164.403C87.5731 188.065 93.3035 232.104 82.2342 244.711C80.3334 246.878 69.6973 247.933 66.8811 247.933C39.5013 247.933 32.8486 249.372 32.583 249.428L33.3517 252.831Z" fill="white"/>
</g>
<path d="M126.951 129.965V138.728V143.172V151.935L93.9182 146.757C92.3389 146.513 91.1719 145.15 91.1719 143.55V143.172V138.728V138.35C91.1719 136.75 92.3389 135.387 93.9182 135.143L126.951 129.965Z" fill="#21D4B4" fill-opacity="0.705882"/>
<path opacity="0.4" d="M126.951 129.965V138.728V143.172V151.935L93.9182 146.757C92.3389 146.513 91.1719 145.15 91.1719 143.55V143.172V138.728V138.35C91.1719 136.75 92.3389 135.387 93.9182 135.143L126.951 129.965Z" fill="white"/>
<path opacity="0.2" d="M93.9182 143.919L126.951 149.098V151.935L93.9182 146.756C92.3389 146.512 91.1719 145.149 91.1719 143.549V143.172V140.712C91.1789 142.305 92.3389 143.668 93.9182 143.919Z" fill="#263238"/>
<path d="M128.342 128.098H146.539V139.755H112.646V133.78L128.342 128.098Z" fill="#21D4B4" fill-opacity="0.705882"/>
<path opacity="0.6" d="M128.342 128.098H146.539V139.755H112.646V133.78L128.342 128.098Z" fill="white"/>
<path d="M130.844 152.229L146.539 146.547V128.098L130.844 133.78V152.229Z" fill="#21D4B4" fill-opacity="0.705882"/>
<path opacity="0.4" d="M130.844 152.229L146.539 146.547V128.098L130.844 133.78V152.229Z" fill="white"/>
<path d="M112.654 152.229H130.845V133.78H112.654V152.229Z" fill="#21D4B4" fill-opacity="0.705882"/>
<path opacity="0.2" d="M112.654 152.229H130.845V133.78H112.654V152.229Z" fill="white"/>
<path d="M143.059 129.363C142.514 127.183 140.872 125.596 138.929 125.596H135.63C133.24 125.596 131.305 127.986 131.305 130.942C131.305 131.432 131.361 131.907 131.465 132.361H134.771L143.059 129.363Z" fill="#21D4B4" fill-opacity="0.705882"/>
<path opacity="0.6" d="M143.059 129.363C142.514 127.183 140.872 125.596 138.929 125.596H135.63C133.24 125.596 131.305 127.986 131.305 130.942C131.305 131.432 131.361 131.907 131.465 132.361H134.771L143.059 129.363Z" fill="white"/>
<path d="M134.771 132.368L143.059 129.363C142.514 127.183 140.872 125.596 138.929 125.596C136.539 125.596 134.604 127.986 134.604 130.942C134.604 131.432 134.659 131.907 134.764 132.361H134.771V132.368Z" fill="#21D4B4" fill-opacity="0.705882"/>
<path opacity="0.4" d="M134.771 132.368L143.059 129.363C142.514 127.183 140.872 125.596 138.929 125.596C136.539 125.596 134.604 127.986 134.604 130.942C134.604 131.432 134.659 131.907 134.764 132.361H134.771V132.368Z" fill="white"/>
<path d="M141.648 131.914V129.719C141.284 128.273 140.194 127.218 138.901 127.218C137.315 127.218 136.022 128.811 136.022 130.768V133.947L132.766 135.128V149.489L144.618 145.198V130.837L141.648 131.914Z" fill="#263238"/>
<path d="M132.766 136.023H157.106V142.382H132.766V139.119V136.023Z" fill="#263238"/>
<path opacity="0.8" d="M132.766 136.023H157.106V142.382H132.766V139.119V136.023Z" fill="white"/>
<path d="M148.538 149.189L157.106 146.086V136.023L148.538 139.119V149.189Z" fill="#263238"/>
<path d="M132.763 149.194H148.535V139.124H132.763V149.194Z" fill="#263238"/>
<path opacity="0.4" d="M132.763 149.194H148.535V139.124H132.763V149.194Z" fill="white"/>
<path opacity="0.6" d="M148.538 149.189L157.106 146.086V136.023L148.538 139.119V149.189Z" fill="white"/>
<path d="M149.894 148.7L155.743 146.582V143.745L149.894 145.862V148.7Z" fill="#21D4B4" fill-opacity="0.705882"/>
<path d="M136.574 128.678C136.225 129.265 136.015 129.985 136.015 130.775V132.557L148.307 136.547L152.843 135.359V133.962L136.574 128.678Z" fill="#263238"/>
<path opacity="0.8" d="M136.574 128.678C136.225 129.265 136.015 129.985 136.015 130.775V132.557L148.307 136.547L152.843 135.359V133.962L136.574 128.678Z" fill="white"/>
<path d="M152.85 133.954L147.923 135.736V138.084L152.85 136.302V133.954Z" fill="#263238"/>
<path opacity="0.6" d="M152.85 133.954L147.923 135.736V138.084L152.85 136.302V133.954Z" fill="white"/>
<path d="M136.023 131.879V133.947L135.617 134.094L147.923 138.084V135.736L136.023 131.879Z" fill="#263238"/>
<path opacity="0.4" d="M136.023 131.879V133.947L135.617 134.094L147.923 138.084V135.736L136.023 131.879Z" fill="white"/>
<path d="M95.1765 134.808L93.7928 133.69C93.2757 133.27 92.5838 133.131 91.9409 133.305L88.936 134.144C87.734 134.479 86.7696 135.381 86.3504 136.555L86.0918 137.282C88.2581 139.287 92.0807 139.86 92.0807 139.86L93.1499 140.147C94.1003 140.398 95.0367 139.888 95.2953 138.966L95.8823 136.848C96.0779 136.128 95.7984 135.311 95.1765 134.808Z" fill="#FFB9B2"/>
<path d="M66.5805 119.748C65.8468 122.893 65.3786 125.891 65.2667 129.182C65.2178 130.831 65.2388 132.495 65.6162 134.479C65.721 134.982 65.8607 135.5 66.0704 136.08C66.294 136.66 66.5666 137.296 67.1046 138.001C67.6986 138.777 68.3485 139.259 68.9356 139.616C69.5296 139.965 70.0816 140.189 70.5987 140.37C71.64 140.706 72.5554 140.853 73.4429 140.95C74.3235 141.041 75.169 141.083 75.9866 141.076C77.6289 141.055 79.2012 140.943 80.7526 140.741C83.8554 140.342 86.8114 139.727 89.7953 138.847C90.8226 138.539 91.4096 137.463 91.1021 136.436C90.8505 135.583 90.0609 135.031 89.2083 135.052H89.1454C86.2593 135.108 83.3103 135.157 80.4801 135.059C79.0615 134.996 77.6638 134.927 76.343 134.745C75.6862 134.654 75.0432 134.563 74.4562 134.423C73.8762 134.291 73.3381 134.123 72.9817 133.941C72.6183 133.801 72.4856 133.543 72.821 133.864C72.9817 134.067 72.828 133.69 72.807 133.235C72.7022 132.278 72.7791 130.95 72.8979 129.643C73.0306 128.316 73.2193 126.946 73.4429 125.569C73.6386 124.2 73.9321 122.76 74.1627 121.467L74.1907 121.314C74.568 119.203 73.1634 117.184 71.053 116.806C69.0054 116.436 67.0487 117.75 66.5805 119.748Z" fill="#FFB9B2"/>
<path d="M74.3794 127.197C74.3794 127.197 68.9006 127.26 64.7846 124.731C64.7846 124.731 64.6378 115.674 69.9139 112.732C75.19 109.79 74.3794 127.197 74.3794 127.197Z" fill="#21D4B4" fill-opacity="0.705882"/>
<path opacity="0.2" d="M74.3794 127.197C74.3794 127.197 68.9006 127.26 64.7846 124.731C64.7846 124.731 64.6378 115.674 69.9139 112.732C75.19 109.79 74.3794 127.197 74.3794 127.197Z" fill="black"/>
<path d="M66.9021 123.892L67.6918 126.338L68.6002 124.29C70.3054 124.633 72.5066 124.933 75.2879 125.024L75.2949 128.211C75.2949 128.211 69.5716 128.546 63.8203 125.464L63.8553 122.739C63.8692 122.746 64.7987 123.319 66.9021 123.892Z" fill="#21D4B4" fill-opacity="0.705882"/>
<path opacity="0.7" d="M66.9021 123.892L67.6918 126.338L68.6002 124.29C70.3054 124.633 72.5066 124.933 75.2879 125.024L75.2949 128.211C75.2949 128.211 69.5716 128.546 63.8203 125.464L63.8553 122.739C63.8692 122.746 64.7987 123.319 66.9021 123.892Z" fill="white"/>
</svg>
