<svg width="66" height="26" viewBox="0 0 66 26" fill="none" xmlns="http://www.w3.org/2000/svg">
<path d="M30.0173 11.9342V19.6782H27.5586V0.550228H34.0759C34.8541 0.533251 35.6279 0.67088 36.3526 0.955142C37.0772 1.2394 37.7382 1.66465 38.2973 2.20623C39.4413 3.23556 40.0839 4.70756 40.0599 6.24356C40.0767 7.00764 39.9279 7.76629 39.6236 8.46736C39.3193 9.16844 38.8668 9.79532 38.2973 10.3049C37.1559 11.3929 35.7479 11.9369 34.0759 11.9342H30.0173ZM30.0173 2.90489V9.58489H34.1373C35.0519 9.61156 35.9319 9.25423 36.5693 8.59556C37.8599 7.34223 37.8919 5.27556 36.6333 3.98489L36.5693 3.92089C36.2589 3.5891 35.8816 3.32698 35.4623 3.15183C35.0431 2.97669 34.5914 2.89252 34.1373 2.90489H30.0173ZM45.7239 6.16356C47.5426 6.16356 48.9746 6.64889 50.0253 7.61956C51.0759 8.59023 51.6013 9.92356 51.6013 11.6116V19.6809H49.2519V17.8622H49.1453C48.1266 19.3582 46.7719 20.1076 45.0839 20.1076C43.6413 20.1076 42.4359 19.6809 41.4653 18.8249C40.9998 18.4322 40.6277 17.9408 40.3758 17.3864C40.124 16.832 39.9988 16.2284 40.0093 15.6196C40.0093 14.2649 40.5213 13.1876 41.5453 12.3876C42.5693 11.5876 43.9346 11.1849 45.6466 11.1849C47.1053 11.1849 48.3079 11.4516 49.2519 11.9849V11.4222C49.2549 11.0072 49.1653 10.5967 48.9895 10.2207C48.8138 9.84477 48.5563 9.51275 48.2359 9.24889C47.5859 8.66202 46.7383 8.34204 45.8626 8.35289C44.4919 8.35289 43.4039 8.93156 42.6039 10.0889L40.4413 8.72623C41.6279 7.01689 43.3906 6.16356 45.7239 6.16356ZM42.5426 15.6729C42.5414 15.9854 42.6145 16.2937 42.7559 16.5723C42.8973 16.851 43.103 17.092 43.3559 17.2756C43.8999 17.7022 44.5746 17.9316 45.2653 17.9156C46.3027 17.9129 47.2969 17.4997 48.0306 16.7662C48.8439 15.9982 49.2519 15.1022 49.2519 14.0676C48.4839 13.4569 47.4173 13.1502 46.0466 13.1502C45.0493 13.1502 44.2146 13.3902 43.5479 13.8729C42.8786 14.3662 42.5426 14.9609 42.5426 15.6729ZM65.0946 6.59023L56.8893 25.4516H54.3533L57.3986 18.8516L51.9986 6.59023H54.6706L58.5719 15.9929H58.6253L62.4199 6.59023H65.0946Z" fill="#5F6368"/>
<path d="M22.4492 12.4788C22.4492 11.7295 22.3879 10.9828 22.2599 10.2441H11.8945V14.4761H17.8305C17.7094 15.1521 17.4524 15.7965 17.0752 16.3703C16.698 16.9441 16.2084 17.4355 15.6359 17.8148V20.5641H19.1799C21.2545 18.6548 22.4492 15.8255 22.4492 12.4788Z" fill="#4285F4"/>
<path d="M11.8948 23.22C14.8602 23.22 17.3588 22.2467 19.1802 20.5667L15.6362 17.8174C14.6495 18.4867 13.3802 18.868 11.8948 18.868C9.02817 18.868 6.59617 16.9347 5.72417 14.332H2.07617V17.164C2.99042 18.9845 4.39283 20.515 6.12671 21.5844C7.8606 22.6538 9.85767 23.2201 11.8948 23.22Z" fill="#34A853"/>
<path d="M5.72688 14.3323C5.26558 12.9675 5.26558 11.489 5.72688 10.1243V7.29492H2.07621C1.30689 8.8266 0.90625 10.5169 0.90625 12.2309C0.90625 13.9449 1.30689 15.6352 2.07621 17.1669L5.72688 14.3323Z" fill="#FBBC04"/>
<path d="M11.8948 5.5909C13.462 5.56585 14.9761 6.15773 16.1108 7.2389L19.2495 4.1029C17.2591 2.23544 14.624 1.20932 11.8948 1.2389C9.85767 1.2388 7.8606 1.8051 6.12671 2.87453C4.39283 3.94396 2.99042 5.47441 2.07617 7.2949L5.72684 10.1269C6.59617 7.52157 9.02817 5.5909 11.8948 5.5909Z" fill="#EA4335"/>
</svg>
